@startuml SetPasswordClerk
skinparam classAttributeIconSize 0
skinparam linetype ortho
Title Set Password Clerk Class Diagram

package pkgSetPasswordClerk <<Frame>> {
    class User {
        + id: String
        + email: String
        + fullName: String
        + hashedPassword: String
        + isPasswordSet: Boolean
    }

    ' Authentication Service
    class AuthenticationService {
        + setPassword(userId: String, newPassword: String): Boolean
    }

    ' Password Validator class
    class PasswordValidator {
        + validatePassword(password: String): Boolean
        + isStrong(password: String): Boolean
    }

    ' User Repository class
    class UserRepository {
        + getUserById(userId: String): User
        + updatePassword(userId: String, hashedPassword: String): Boolean
    }
    class DbContext{
        

    }

    ' Relationships
    AuthenticationService --> UserRepository : Updates
    AuthenticationService --> PasswordValidator : Validates
    UserRepository -->  DbContext : Use data manipulation
}
@enduml
